<svg width="313" height="313" viewBox="0 0 313 313" fill="none" xmlns="http://www.w3.org/2000/svg">
<mask id="path-1-inside-1_59_79" fill="white">
<path d="M313 156.5C313 242.933 242.933 313 156.5 313C70.0674 313 0 242.933 0 156.5C0 70.0674 70.0674 0 156.5 0C242.933 0 313 70.0674 313 156.5ZM126.296 156.5C126.296 173.181 139.819 186.704 156.5 186.704C173.181 186.704 186.704 173.181 186.704 156.5C186.704 139.819 173.181 126.296 156.5 126.296C139.819 126.296 126.296 139.819 126.296 156.5Z"/>
</mask>
<path d="M313 156.5C313 242.933 242.933 313 156.5 313C70.0674 313 0 242.933 0 156.5C0 70.0674 70.0674 0 156.5 0C242.933 0 313 70.0674 313 156.5ZM126.296 156.5C126.296 173.181 139.819 186.704 156.5 186.704C173.181 186.704 186.704 173.181 186.704 156.5C186.704 139.819 173.181 126.296 156.5 126.296C139.819 126.296 126.296 139.819 126.296 156.5Z" fill="url(#paint0_linear_59_79)" stroke="url(#paint1_linear_59_79)" stroke-width="2" mask="url(#path-1-inside-1_59_79)"/>
<g filter="url(#filter0_d_59_79)">
<mask id="path-2-inside-2_59_79" fill="white">
<path d="M221 156.5C221 192.122 192.122 221 156.5 221C120.878 221 92 192.122 92 156.5C92 120.878 120.878 92 156.5 92C192.122 92 221 120.878 221 156.5ZM110.834 156.5C110.834 181.721 131.279 202.166 156.5 202.166C181.721 202.166 202.166 181.721 202.166 156.5C202.166 131.279 181.721 110.834 156.5 110.834C131.279 110.834 110.834 131.279 110.834 156.5Z"/>
</mask>
<path d="M221 156.5C221 192.122 192.122 221 156.5 221C120.878 221 92 192.122 92 156.5C92 120.878 120.878 92 156.5 92C192.122 92 221 120.878 221 156.5ZM110.834 156.5C110.834 181.721 131.279 202.166 156.5 202.166C181.721 202.166 202.166 181.721 202.166 156.5C202.166 131.279 181.721 110.834 156.5 110.834C131.279 110.834 110.834 131.279 110.834 156.5Z" stroke="black" stroke-opacity="0.28" stroke-width="2" shape-rendering="crispEdges" mask="url(#path-2-inside-2_59_79)"/>
</g>
<g filter="url(#filter1_d_59_79)">
<mask id="path-3-inside-3_59_79" fill="white">
<path d="M241 157C241 203.392 203.392 241 157 241C110.608 241 73 203.392 73 157C73 110.608 110.608 73 157 73C203.392 73 241 110.608 241 157ZM77.032 157C77.032 201.165 112.835 236.968 157 236.968C201.165 236.968 236.968 201.165 236.968 157C236.968 112.835 201.165 77.032 157 77.032C112.835 77.032 77.032 112.835 77.032 157Z"/>
</mask>
<path d="M241 157C241 203.392 203.392 241 157 241C110.608 241 73 203.392 73 157C73 110.608 110.608 73 157 73C203.392 73 241 110.608 241 157ZM77.032 157C77.032 201.165 112.835 236.968 157 236.968C201.165 236.968 236.968 201.165 236.968 157C236.968 112.835 201.165 77.032 157 77.032C112.835 77.032 77.032 112.835 77.032 157Z" stroke="black" stroke-opacity="0.3" stroke-width="2" shape-rendering="crispEdges" mask="url(#path-3-inside-3_59_79)"/>
</g>
<path d="M225.406 81.4382C224.787 82.1242 224.106 82.4349 223.365 82.3702C222.633 82.3143 221.875 81.9326 221.091 81.2252C219.836 80.0933 219.286 78.8412 219.44 77.4688C219.603 76.1052 220.291 74.7521 221.502 73.4094C221.697 73.1938 221.99 72.889 222.381 72.4951L221.557 71.7523C221.479 71.6816 221.466 71.6168 221.519 71.558C221.67 71.3914 221.934 71.2657 222.313 71.1808C222.692 71.0959 222.979 71.1419 223.175 71.3187L223.455 71.5708C224.219 70.9801 224.986 70.5435 225.757 70.2609C226.537 69.9872 227.217 69.8448 227.796 69.8337C228.384 69.8315 228.949 69.9147 229.491 70.0831C230.364 70.3374 231.133 70.7651 231.8 71.3664C232.466 71.9677 232.785 72.4514 232.757 72.8173C232.739 72.9958 232.596 73.2321 232.331 73.5261C232.075 73.8103 231.912 73.9215 231.844 73.8596C231.834 73.8508 231.807 73.7914 231.764 73.6814C231.616 73.3339 231.35 72.9877 230.968 72.6428C230.135 71.8912 229.218 71.5972 228.217 71.7607C227.226 71.9332 226.236 72.4092 225.248 73.189C226.002 73.8512 227.016 74.7571 228.29 75.9067C228.388 75.9951 228.406 76.0736 228.344 76.1422C228.202 76.299 227.943 76.4292 227.565 76.5327C227.196 76.6264 226.913 76.5849 226.717 76.408L224.189 74.1266C224.073 74.2354 223.834 74.4906 223.471 74.8925C223.117 75.2845 222.81 75.7629 222.55 76.3277C222.307 76.8916 222.24 77.4978 222.349 78.1465C222.466 78.804 222.834 79.4113 223.451 79.9684C224.069 80.5255 224.712 80.857 225.381 80.9628C225.466 80.9678 225.527 80.988 225.566 81.0234C225.645 81.0941 225.591 81.2324 225.406 81.4382Z" fill="white"/>
<path d="M237.968 90.9101C238.158 90.6763 238.801 89.954 239.897 88.7432C240.994 87.5323 241.824 86.5049 242.388 85.6608C242.952 84.8167 243.22 84.1039 243.192 83.5224C243.169 83.3767 243.2 83.2731 243.285 83.2114C243.489 83.0651 243.863 83.2351 244.408 83.7214C244.952 84.2078 245.336 84.6064 245.56 84.9173C245.791 85.2388 245.839 85.4972 245.703 85.6925C245.445 86.1705 244.732 87.0564 243.565 88.3503C241.11 91.0413 239.612 92.8012 239.069 93.6298C238.965 93.802 238.948 93.9363 239.017 94.0328C239.087 94.1292 239.247 94.1602 239.499 94.1257C239.769 94.0943 240.137 94.041 240.603 93.966C241.088 93.894 241.883 93.6883 242.988 93.3491C244.094 93.0098 244.973 92.6052 245.627 92.1352C246.635 91.4111 247.109 90.5665 247.049 89.6015C247.075 89.5017 247.125 89.4248 247.2 89.3709C247.425 89.2091 247.874 89.3582 248.546 89.8181C249.218 90.278 249.735 90.7598 250.097 91.2636C250.336 91.5959 250.3 91.8737 249.989 92.0972C249.024 92.7905 247.765 93.4026 246.212 93.9335C244.67 94.4566 243.16 94.8431 241.681 95.093C240.214 95.3351 238.917 95.5108 237.793 95.6199C236.036 95.777 235.089 95.759 234.95 95.5661C234.881 95.4696 234.89 95.3246 234.979 95.131C235.209 94.4782 235.987 93.3335 237.314 91.6969L237.968 90.9101Z" fill="white"/>
<path d="M251.394 117.265C250.545 117.629 249.797 117.627 249.15 117.257C248.509 116.9 247.98 116.236 247.564 115.266C246.899 113.713 246.923 112.345 247.638 111.163C248.357 109.993 249.548 109.052 251.21 108.34C251.477 108.226 251.871 108.072 252.391 107.877L251.954 106.858C251.912 106.761 251.928 106.697 252.001 106.666C252.207 106.577 252.5 106.574 252.879 106.656C253.259 106.737 253.501 106.899 253.605 107.142L253.753 107.488C254.694 107.271 255.574 107.196 256.392 107.262C257.215 107.34 257.892 107.495 258.422 107.727C258.958 107.972 259.436 108.284 259.857 108.663C260.544 109.26 261.063 109.97 261.417 110.795C261.77 111.62 261.858 112.193 261.679 112.514C261.588 112.668 261.36 112.823 260.996 112.979C260.644 113.13 260.45 113.163 260.413 113.078C260.408 113.066 260.409 113.001 260.416 112.883C260.426 112.505 260.33 112.08 260.127 111.606C259.685 110.575 258.976 109.924 257.998 109.654C257.026 109.395 255.928 109.413 254.704 109.708C255.111 110.625 255.653 111.872 256.329 113.449C256.381 113.571 256.364 113.65 256.279 113.686C256.085 113.769 255.795 113.779 255.408 113.714C255.034 113.645 254.795 113.489 254.691 113.246L253.35 110.116C253.199 110.166 252.875 110.298 252.377 110.511C251.892 110.719 251.413 111.025 250.939 111.429C250.484 111.839 250.169 112.362 249.996 112.996C249.827 113.643 249.907 114.348 250.235 115.113C250.562 115.877 251.007 116.447 251.571 116.824C251.645 116.863 251.693 116.908 251.714 116.956C251.755 117.053 251.649 117.156 251.394 117.265Z" fill="white"/>
<path d="M261.4 136.242L263.712 135.789C266.009 135.359 267.518 134.996 268.242 134.699C268.328 134.656 268.397 134.63 268.449 134.62C268.669 134.579 268.899 134.764 269.137 135.176C269.375 135.588 269.519 135.924 269.567 136.183C269.616 136.443 269.562 136.587 269.407 136.616C269.394 136.619 269.32 136.619 269.185 136.618C267.533 136.618 264.969 136.944 261.492 137.595C259.118 138.039 257.437 138.495 256.45 138.962C256.291 139.045 256.205 139.088 256.192 139.091C255.92 139.142 255.643 138.885 255.363 138.32C255.069 137.757 254.9 137.352 254.853 137.106C254.78 136.716 254.822 136.433 254.976 136.257C255.286 135.903 256.217 135.245 257.77 134.283C259.337 133.332 260.803 132.48 262.166 131.728L264.207 130.58C264.267 130.542 264.294 130.503 264.286 130.464C264.277 130.412 264.22 130.363 264.117 130.315C262.898 130.476 261.686 130.669 260.479 130.895C259.272 131.121 258.346 131.301 257.7 131.436C257.056 131.583 256.568 131.701 256.235 131.791C255.903 131.88 255.635 131.957 255.432 132.022C255.243 132.084 255.104 132.13 255.015 132.16C254.929 132.203 254.867 132.228 254.828 132.235C254.581 132.282 254.353 132.103 254.143 131.699C253.92 131.297 253.776 130.922 253.71 130.571C253.647 130.234 253.694 130.051 253.849 130.022C253.927 130.007 254.028 130.008 254.152 130.025C254.276 130.042 254.434 130.06 254.625 130.078C255.104 130.122 255.944 130.059 257.148 129.887C258.364 129.713 259.738 129.483 261.269 129.196C262.813 128.907 263.931 128.678 264.625 128.507C265.754 128.229 266.498 127.969 266.856 127.727C266.887 127.681 266.936 127.652 267 127.64C267.208 127.601 267.474 127.907 267.797 128.558C268.12 129.209 268.317 129.723 268.388 130.099C268.461 130.488 268.497 130.717 268.496 130.784C268.543 130.963 268.46 131.093 268.246 131.173C266.954 131.805 265.451 132.63 263.734 133.65C262.021 134.682 260.727 135.556 259.854 136.27C259.801 136.347 259.778 136.405 259.786 136.444C259.798 136.509 260.336 136.442 261.4 136.242Z" fill="white"/>
<path d="M271.674 154.073L271.463 156.921C271.44 158.188 271.575 159.102 271.869 159.662C271.92 159.742 271.945 159.808 271.944 159.861C271.943 159.927 271.85 159.958 271.665 159.955C271.48 159.952 271.179 159.834 270.761 159.602C270.12 159.26 269.805 158.779 269.817 158.159L269.856 157.07C269.858 156.965 269.8 156.898 269.682 156.869C267.743 156.741 265.646 156.657 263.389 156.615C261.145 156.574 259.454 156.636 258.316 156.8L258.217 156.798C257.887 156.792 257.629 156.47 257.442 155.833C257.256 155.209 257.168 154.62 257.178 154.066C257.183 153.802 257.258 153.671 257.403 153.674C257.442 153.675 257.534 153.696 257.679 153.738C257.966 153.889 259.37 154.04 261.889 154.192C264.407 154.357 266.307 154.451 267.587 154.474L269.745 154.474C269.825 154.475 269.871 154.437 269.886 154.358C269.944 154.081 269.976 153.765 269.983 153.409C269.996 152.696 269.86 152.166 269.576 151.817C269.512 151.724 269.48 151.637 269.482 151.558C269.483 151.466 269.537 151.42 269.643 151.422C269.801 151.425 270.017 151.515 270.291 151.692C270.566 151.855 270.8 152.031 270.995 152.219C271.461 152.677 271.688 153.295 271.674 154.073Z" fill="white"/>
<path d="M266.578 179.104L267.16 179.314C267.753 179.444 268.184 179.295 268.454 178.868C268.649 178.533 268.768 178.268 268.811 178.075L268.815 178.056C268.9 177.669 268.909 177.319 268.843 177.007C268.789 176.698 268.686 176.459 268.534 176.291C268.22 175.938 267.86 175.697 267.456 175.567C266.966 175.46 266.493 175.585 266.036 175.944C265.591 176.306 265.165 176.767 264.759 177.326C264.362 177.901 263.941 178.464 263.496 179.015C263.047 179.579 262.485 180.016 261.808 180.327C261.132 180.637 260.387 180.704 259.575 180.525C257.99 180.176 256.914 179.413 256.349 178.234C255.78 177.069 255.637 175.848 255.917 174.572C256.195 173.308 256.709 172.32 257.461 171.607C258.222 170.909 259.087 170.666 260.054 170.879L260.073 170.883C260.55 170.988 260.947 171.15 261.264 171.368C261.591 171.602 261.815 171.841 261.938 172.084C262.192 172.586 262.294 173.014 262.243 173.367L262.212 173.604C262.132 173.965 261.97 174.274 261.724 174.53C261.491 174.79 261.22 174.886 260.911 174.818C260.756 174.784 260.646 174.672 260.579 174.481C260.513 174.291 260.391 174.109 260.213 173.935C260.032 173.773 259.872 173.671 259.733 173.627L259.529 173.541C258.743 173.368 258.141 173.614 257.725 174.28C257.578 174.518 257.487 174.714 257.453 174.869C257.297 175.578 257.386 176.192 257.717 176.711C258.047 177.243 258.54 177.581 259.197 177.725C259.984 177.898 260.696 177.703 261.333 177.141C261.804 176.717 262.228 176.236 262.603 175.697C262.976 175.17 263.236 174.815 263.385 174.632C263.533 174.448 263.704 174.256 263.896 174.055C264.089 173.854 264.346 173.64 264.666 173.413C265.344 172.914 266.14 172.764 267.055 172.965C267.984 173.17 268.708 173.592 269.229 174.234C270.178 175.389 270.455 176.868 270.058 178.673C269.848 179.627 269.484 180.392 268.966 180.967C268.46 181.546 267.885 181.764 267.24 181.622C266.776 181.52 266.419 181.3 266.169 180.961C265.917 180.635 265.836 180.266 265.926 179.853C265.969 179.66 266.05 179.475 266.17 179.299C266.287 179.135 266.423 179.07 266.578 179.104Z" fill="white"/>
<path d="M251.21 207.793C251.21 207.793 250.025 209.714 247.654 213.556C247.563 213.702 247.456 213.736 247.333 213.658C246.774 213.307 246.621 212.93 246.875 212.528L250.512 206.746C250.603 206.601 250.761 206.598 250.984 206.739C251.409 207.006 251.484 207.357 251.21 207.793Z" fill="white"/>
<path d="M228.747 243.779L229.067 244.309C229.444 244.785 229.872 244.942 230.351 244.781C230.715 244.645 230.974 244.515 231.129 244.392L231.145 244.379C231.455 244.133 231.683 243.868 231.828 243.584C231.982 243.311 232.053 243.061 232.041 242.834C232.021 242.362 231.894 241.948 231.663 241.592C231.351 241.199 230.905 240.998 230.323 240.987C229.75 240.987 229.129 241.075 228.461 241.252C227.79 241.447 227.108 241.617 226.415 241.763C225.711 241.917 224.999 241.901 224.278 241.714C223.557 241.528 222.938 241.109 222.421 240.458C221.412 239.186 221.061 237.914 221.367 236.644C221.663 235.381 222.322 234.344 223.346 233.532C224.359 232.727 225.383 232.286 226.416 232.208C227.447 232.148 228.27 232.506 228.885 233.282L228.897 233.297C229.201 233.68 229.407 234.056 229.515 234.425C229.62 234.813 229.644 235.14 229.585 235.406C229.465 235.956 229.274 236.352 229.011 236.594L228.837 236.757C228.548 236.987 228.227 237.124 227.874 237.168C227.529 237.222 227.259 237.125 227.062 236.877C226.963 236.753 226.949 236.596 227.017 236.407C227.086 236.217 227.107 235.999 227.079 235.751C227.04 235.512 226.981 235.331 226.902 235.209L226.797 235.014C226.297 234.383 225.675 234.194 224.932 234.447C224.667 234.539 224.473 234.634 224.349 234.732C223.78 235.183 223.461 235.715 223.39 236.327C223.31 236.947 223.478 237.521 223.897 238.048C224.397 238.679 225.072 238.978 225.922 238.944C226.555 238.914 227.187 238.808 227.819 238.627C228.44 238.454 228.866 238.343 229.097 238.295C229.328 238.246 229.582 238.205 229.858 238.171C230.135 238.137 230.469 238.133 230.86 238.16C231.701 238.2 232.413 238.588 232.995 239.322C233.586 240.066 233.881 240.852 233.88 241.678C233.886 243.173 233.165 244.495 231.718 245.643C230.953 246.251 230.187 246.613 229.422 246.732C228.665 246.861 228.081 246.667 227.671 246.15C227.376 245.778 227.238 245.381 227.258 244.961C227.268 244.548 227.439 244.211 227.77 243.948C227.925 243.825 228.104 243.733 228.309 243.672C228.503 243.62 228.649 243.655 228.747 243.779Z" fill="white"/>
<path d="M209.508 257.334C209.891 255.707 210.011 254.203 209.869 252.825L209.852 252.833C208.193 253.619 207.242 254.062 206.998 254.163C206.748 254.282 206.616 254.359 206.603 254.394C206.591 254.429 206.587 254.467 206.592 254.509C207.49 255.88 208.123 256.8 208.491 257.268C208.865 257.748 209.111 257.96 209.23 257.904C209.35 257.847 209.442 257.657 209.508 257.334ZM207.108 248.152L206.748 248.41C206.629 248.466 206.538 248.429 206.476 248.298C206.278 247.88 206.195 247.489 206.226 247.123C206.258 246.758 206.37 246.456 206.564 246.218C206.874 245.823 207.172 245.558 207.458 245.422C208.007 245.162 208.514 245.17 208.981 245.446C209.453 245.733 209.884 246.289 210.274 247.112C210.67 247.947 210.954 249.134 211.128 250.673L212.166 250.181C212.298 250.119 212.394 250.153 212.456 250.284C212.519 250.416 212.516 250.672 212.449 251.055C212.387 251.449 212.243 251.7 212.017 251.807L211.211 252.189C211.257 254.475 211.033 256.575 210.538 258.489C210.409 258.989 210.203 259.495 209.921 260.009C209.626 260.528 209.36 260.844 209.121 260.957C208.883 261.07 208.653 261.047 208.432 260.889C207.884 260.535 206.653 258.877 204.738 255.913C203.95 254.621 203.039 253.329 202.004 252.038C200.962 250.764 200.235 250.078 199.824 249.981C199.73 249.967 199.666 249.925 199.632 249.853C199.547 249.674 199.725 249.386 200.164 248.988C200.592 248.595 200.943 248.334 201.217 248.204C201.479 248.08 201.699 248.019 201.876 248.023C202.048 248.015 202.168 248.038 202.238 248.093C202.673 248.456 203.413 249.464 204.459 251.116L204.965 251.906C205.278 252.444 205.526 252.845 205.71 253.108L205.877 253.139L209.625 251.385C209.48 250.708 209.3 250.144 209.086 249.69C208.871 249.237 208.701 248.909 208.575 248.705C208.443 248.52 208.237 248.347 207.957 248.187C207.677 248.028 207.394 248.016 207.108 248.152Z" fill="white"/>
<path d="M188.378 262.668L189.164 266.328C189.273 266.912 189.424 267.361 189.617 267.674C189.81 267.987 189.909 268.156 189.914 268.182C189.967 268.468 189.574 268.769 188.734 269.088C187.881 269.409 187.227 269.612 186.773 269.697C186.306 269.784 186.032 269.721 185.952 269.508C184.452 266.015 183.291 263.614 182.468 262.304C182.374 262.16 182.295 262.095 182.23 262.107C182.152 262.121 182.098 262.192 182.068 262.318C181.658 264.933 181.346 267.503 181.134 270.027C181.111 270.192 181.003 270.333 180.81 270.45C180.62 270.58 180.279 270.731 179.787 270.903C179.283 271.078 178.778 271.213 178.272 271.308C177.766 271.403 177.493 271.346 177.454 271.139C177.452 271.126 177.452 271.018 177.455 270.816C177.459 270.627 177.456 270.393 177.444 270.113C177.432 269.834 177.415 269.494 177.394 269.095C177.343 268.178 177.228 267.132 177.049 265.957C176.858 264.798 176.654 263.634 176.435 262.466L176.014 260.43C175.839 259.496 175.656 258.839 175.464 258.458C175.261 258.093 175.154 257.878 175.141 257.813C175.132 257.762 175.165 257.688 175.241 257.593C175.583 257.194 176.162 256.917 176.98 256.764C177.499 256.667 177.823 256.788 177.954 257.126C178.027 257.3 178.1 257.582 178.172 257.971C178.248 258.373 178.437 259.6 178.741 261.652C179.044 263.704 179.282 265.19 179.454 266.111C179.629 267.045 179.769 267.503 179.872 267.483C179.885 267.481 179.891 267.473 179.888 267.46C179.888 267.46 179.906 267.45 179.943 267.43C179.979 267.41 180.046 267.189 180.141 266.768C180.224 266.35 180.362 265.33 180.556 263.709C180.749 262.088 180.916 260.573 181.055 259.164C181.196 257.768 181.277 257.014 181.296 256.903C181.373 256.526 181.613 256.3 182.015 256.225C182.21 256.188 182.379 256.23 182.522 256.351C183.297 258.194 184.55 260.799 186.282 264.168L187.158 265.837C187.197 265.897 187.229 265.925 187.255 265.92C187.319 265.908 187.356 265.854 187.365 265.758C187.259 264.905 186.974 263.24 186.511 260.762C186.049 258.296 185.667 256.756 185.364 256.142C185.346 256.118 185.332 256.08 185.322 256.029C185.271 255.756 185.448 255.515 185.852 255.305C186.258 255.108 186.636 254.977 186.987 254.911C187.324 254.848 187.507 254.894 187.536 255.05C187.539 255.063 187.526 255.173 187.497 255.38C187.427 256.078 187.483 257.061 187.667 258.329C187.837 259.6 188.075 261.046 188.378 262.668Z" fill="white"/>
<path d="M157.235 268.076L157.359 265.604L157.638 262.189C157.628 262.135 157.609 262.108 157.583 262.106C157.557 262.105 157.536 262.117 157.521 262.142C157.236 262.496 156.903 262.661 156.52 262.639C156.125 262.616 155.932 262.525 155.941 262.367C155.971 261.867 155.901 261.472 155.733 261.185C155.55 260.91 155.288 260.762 154.945 260.742C154.59 260.722 154.24 260.939 153.896 261.395C153.539 261.85 153.337 262.473 153.291 263.264C153.275 263.527 153.31 263.847 153.394 264.222C153.561 264.972 153.928 265.489 154.493 265.774C154.905 265.969 155.585 266.095 156.534 266.15C156.639 266.157 156.688 266.232 156.679 266.377C156.636 267.115 156.482 267.489 156.217 267.5C155.861 267.48 155.48 267.55 155.074 267.711C154.262 268.034 153.822 268.769 153.756 269.915C153.683 271.154 154.359 271.815 155.782 271.898L156.397 271.894C156.637 271.855 156.775 271.764 156.81 271.621L156.813 271.561C156.989 271.043 157.129 269.881 157.235 268.076ZM160.675 259.073L160.623 259.289C160.478 259.518 160.309 260.474 160.119 262.155C159.927 263.849 159.789 265.428 159.704 266.891C159.618 268.367 159.582 269.548 159.596 270.435C159.596 271.334 159.717 271.989 159.957 272.399C160.006 272.468 160.028 272.549 160.023 272.641C160.017 272.734 159.934 272.808 159.772 272.865C158.666 273.223 157.185 273.348 155.327 273.24C154.866 273.213 154.369 273.118 153.836 272.955C153.303 272.805 152.87 272.627 152.538 272.423C152.193 272.217 151.893 271.916 151.639 271.517C151.371 271.118 151.233 270.654 151.224 270.125C151.336 268.214 152.191 267.16 153.789 266.962C153.87 266.94 153.911 266.91 153.913 266.87C153.915 266.844 153.884 266.809 153.82 266.766C153.011 266.586 152.345 266.217 151.822 265.657C151.56 265.391 151.332 264.987 151.139 264.447C150.946 263.907 150.869 263.294 150.909 262.609C150.961 261.726 151.267 260.904 151.827 260.144C152.286 259.523 152.926 259.097 153.746 258.867C154.203 258.735 154.708 258.686 155.262 258.718C156.645 258.799 157.496 259.291 157.813 260.196C157.824 260.236 157.843 260.257 157.869 260.258L157.953 260.184C158.283 259.278 159.102 258.843 160.409 258.879C160.594 258.89 160.682 258.955 160.675 259.073Z" fill="white"/>
<path d="M132.545 265.227L132.623 264.961L129.262 263.968L129.251 264.006C129.148 264.306 129.03 264.684 128.895 265.14C128.757 265.608 128.643 266.015 128.555 266.36C128.463 266.719 128.388 267.02 128.329 267.264C128.271 267.508 128.228 267.723 128.201 267.908C128.161 268.089 128.135 268.225 128.121 268.318C128.104 268.423 128.084 268.513 128.062 268.589C128.039 268.665 127.943 268.733 127.774 268.793C127.047 269.019 126.31 269.021 125.563 268.8C125.095 268.662 124.885 268.51 124.933 268.346C124.937 268.333 124.97 268.267 125.033 268.148C125.629 267.017 126.273 265.397 126.965 263.289C127.631 261.174 127.987 260.04 128.032 259.888C128.611 257.926 128.9 256.531 128.896 255.704C128.888 255.592 128.895 255.498 128.918 255.422C128.937 255.359 129.01 255.298 129.137 255.239C129.695 255.073 130.348 255.101 131.095 255.322C131.576 255.464 131.799 255.709 131.765 256.057C131.751 256.245 131.689 256.523 131.581 256.89C131.469 257.27 131.28 257.84 131.013 258.601C130.735 259.358 130.298 260.695 129.704 262.612L133.027 263.594C133.88 260.708 134.39 258.656 134.557 257.439C134.647 257.135 135.011 256.975 135.649 256.957C136.291 256.926 136.802 256.967 137.182 257.08C137.562 257.192 137.735 257.305 137.701 257.419C137.679 257.495 137.632 257.584 137.56 257.687C137.163 258.147 136.41 260.251 135.303 263.998L135.23 264.245L136.35 264.576C136.451 264.606 136.491 264.659 136.468 264.735C136.461 264.76 136.407 264.848 136.308 264.997C136.205 265.16 136.031 265.328 135.787 265.504C135.53 265.676 135.287 265.728 135.059 265.66L134.85 265.599C134.113 268.093 133.834 269.572 134.013 270.038L134.055 270.175C134.113 270.26 134.128 270.347 134.102 270.436C134.072 270.537 133.978 270.599 133.82 270.621C133.597 270.679 133.228 270.694 132.713 270.666C132.186 270.634 131.726 270.56 131.333 270.444C130.941 270.328 130.771 270.181 130.823 270.004L130.84 269.947C131.381 268.675 131.949 267.102 132.545 265.227Z" fill="white"/>
<path d="M106.617 254.119C106.763 254.156 106.849 254.151 106.875 254.105C106.895 254.071 106.796 253.924 106.578 253.664C106.361 253.405 106.193 253.098 106.075 252.744C105.946 252.382 105.917 252.017 105.989 251.649C106.094 251.087 106.299 250.535 106.604 249.995C106.909 249.455 107.122 248.984 107.243 248.582C107.357 248.192 107.409 247.873 107.398 247.624C107.389 247.103 107.313 246.742 107.169 246.539L107.087 246.402C107.044 246.317 107.042 246.24 107.081 246.171C107.179 245.999 107.545 246.009 108.179 246.2C108.82 246.38 109.296 246.558 109.606 246.733C110.215 247.078 110.47 247.54 110.37 248.12C110.251 248.705 109.858 249.589 109.189 250.773L108.654 251.721C108.089 252.721 108.028 253.528 108.469 254.141C108.641 254.375 108.887 254.582 109.209 254.764L109.226 254.774C109.33 254.832 109.326 254.959 109.216 255.154C109.099 255.361 108.925 255.536 108.693 255.678C108.45 255.813 108.282 255.855 108.19 255.803C107.811 255.589 107.445 255.473 107.091 255.455C106.731 255.448 106.429 255.513 106.186 255.648C105.674 255.936 105.32 256.228 105.122 256.526L104.995 256.75C104.755 257.175 104.623 257.57 104.598 257.935C104.567 258.312 104.623 258.616 104.765 258.848C105.006 259.227 105.304 259.517 105.661 259.718C106.017 259.919 106.326 260.056 106.589 260.128C106.962 260.218 107.178 260.211 107.237 260.108C108.191 258.661 109.064 257.236 109.856 255.834C110.641 254.443 111.228 253.365 111.615 252.598C111.985 251.836 112.282 251.216 112.507 250.737C112.714 250.263 112.841 249.985 112.886 249.905C112.97 249.755 113.069 249.675 113.182 249.663C113.9 249.492 114.765 249.692 115.776 250.264C115.948 250.361 116.002 250.467 115.937 250.582C115.918 250.617 115.855 250.687 115.749 250.794C115.485 250.994 114.931 251.787 114.086 253.175C113.23 254.556 112.474 255.827 111.819 256.988C111.157 258.161 110.644 259.122 110.281 259.872C109.733 261.003 109.478 261.723 109.516 262.032C109.551 262.264 109.553 262.409 109.52 262.467C109.481 262.535 109.379 262.569 109.214 262.566C108.283 262.496 106.853 261.915 104.922 260.824C103.37 259.948 102.456 258.856 102.18 257.547C102.038 256.831 102.172 256.11 102.581 255.386C102.828 254.95 103.135 254.608 103.502 254.36C103.869 254.113 104.231 253.968 104.588 253.927C105.278 253.832 105.859 253.865 106.33 254.024L106.617 254.119Z" fill="white"/>
<path d="M84.9746 244.277C86.6269 244.022 88.0656 243.571 89.2907 242.922L89.2761 242.909C87.9263 241.666 87.1588 240.95 86.9736 240.762C86.7696 240.574 86.649 240.481 86.6117 240.483C86.5744 240.484 86.5375 240.495 86.501 240.515C85.5663 241.862 84.9508 242.793 84.6544 243.31C84.3492 243.836 84.2451 244.144 84.3422 244.233C84.4393 244.323 84.6501 244.338 84.9746 244.277ZM92.588 238.611L92.2139 238.374C92.1168 238.284 92.1174 238.186 92.2158 238.08C92.5287 237.74 92.8604 237.516 93.211 237.408C93.5615 237.3 93.8834 237.291 94.1768 237.382C94.6589 237.521 95.0165 237.698 95.2496 237.912C95.6963 238.324 95.8793 238.797 95.7986 239.333C95.709 239.879 95.3557 240.486 94.7388 241.156C94.1129 241.836 93.1192 242.545 91.7577 243.283L92.6026 244.061C92.7094 244.159 92.7136 244.262 92.6152 244.369C92.5169 244.476 92.2779 244.569 91.8982 244.651C91.5096 244.741 91.223 244.702 91.0385 244.532L90.3831 243.928C88.2809 244.828 86.2496 245.407 84.2892 245.665C83.7782 245.733 83.2316 245.732 82.6496 245.663C82.0578 245.584 81.6648 245.456 81.4706 245.277C81.2764 245.098 81.2112 244.876 81.2751 244.612C81.3981 243.972 82.4744 242.209 84.504 239.322C85.4068 238.108 86.2628 236.779 87.072 235.335C87.8626 233.892 88.2259 232.961 88.162 232.544C88.1395 232.451 88.1551 232.376 88.2087 232.317C88.3428 232.172 88.6768 232.228 89.2106 232.486C89.7347 232.736 90.1084 232.963 90.3317 233.169C90.5453 233.365 90.6836 233.547 90.7465 233.712C90.8183 233.868 90.8419 233.988 90.8174 234.074C90.6435 234.613 89.9868 235.677 88.8472 237.266L88.3042 238.031C87.9228 238.523 87.6442 238.903 87.4685 239.172L87.5034 239.339L90.5342 242.156C91.1068 241.769 91.5629 241.39 91.9027 241.021C92.2424 240.652 92.4831 240.371 92.6246 240.179C92.7475 239.987 92.8304 239.731 92.8732 239.412C92.9161 239.092 92.821 238.825 92.588 238.611Z" fill="white"/>
<path d="M72.1344 226.726L69.0418 228.836C68.5424 229.158 68.1842 229.467 67.9671 229.764C67.75 230.06 67.6304 230.216 67.6082 230.23C67.364 230.387 66.9359 230.137 66.3239 229.479C65.7047 228.81 65.2701 228.282 65.0199 227.893C64.7626 227.494 64.7176 227.217 64.8848 227.062C67.553 224.354 69.3382 222.373 70.2406 221.116C70.338 220.975 70.3689 220.877 70.3331 220.821C70.2902 220.755 70.2046 220.731 70.0761 220.751C67.4998 221.359 65.0028 222.04 62.5852 222.797C62.4235 222.838 62.2521 222.791 62.0712 222.657C61.8792 222.529 61.6105 222.27 61.2652 221.88C60.9127 221.479 60.5971 221.062 60.3183 220.63C60.0396 220.197 59.989 219.923 60.1666 219.809C60.1777 219.802 60.2772 219.761 60.4651 219.687C60.6419 219.621 60.8575 219.529 61.112 219.412C61.3665 219.295 61.6745 219.152 62.0361 218.982C62.8661 218.588 63.7913 218.087 64.8115 217.477C65.8135 216.863 66.8139 216.234 67.8127 215.591L69.5391 214.432C70.3382 213.918 70.8775 213.5 71.1572 213.178C71.4187 212.853 71.5772 212.672 71.6326 212.636C71.677 212.608 71.7575 212.611 71.8742 212.646C72.3732 212.811 72.8478 213.243 73.2981 213.943C73.5839 214.386 73.5949 214.733 73.331 214.981C73.1971 215.114 72.9637 215.288 72.6308 215.503C72.2867 215.724 71.2221 216.363 69.4369 217.418C67.6517 218.474 66.3651 219.255 65.5771 219.763C64.7781 220.277 64.4072 220.579 64.4644 220.668C64.4715 220.679 64.4806 220.681 64.4917 220.674C64.4917 220.674 64.508 220.687 64.5405 220.713C64.5731 220.739 64.8023 220.717 65.2281 220.647C65.6468 220.566 66.6431 220.309 68.2171 219.876C69.7911 219.443 71.2568 219.025 72.6143 218.622C73.9607 218.226 74.689 218.016 74.7992 217.992C75.1774 217.921 75.4773 218.058 75.6989 218.402C75.8061 218.568 75.8308 218.741 75.7731 218.919C74.3593 220.332 72.4196 222.476 69.9538 225.352L68.7391 226.793C68.6979 226.851 68.6845 226.891 68.6988 226.914C68.7345 226.969 68.7984 226.983 68.8903 226.955C69.6403 226.535 71.0751 225.642 73.1947 224.277C75.3033 222.919 76.585 221.984 77.0398 221.471C77.0549 221.446 77.0846 221.419 77.129 221.39C77.362 221.24 77.652 221.313 77.9988 221.607C78.3345 221.909 78.5989 222.21 78.7919 222.51C78.9777 222.798 79.004 222.985 78.8708 223.071C78.8597 223.078 78.7531 223.108 78.5509 223.159C77.8777 223.357 76.9886 223.781 75.8835 224.43C74.7713 225.067 73.5216 225.833 72.1344 226.726Z" fill="white"/>
<path d="M63.2426 194.735L64.0922 197.771C64.3356 198.483 64.634 199.03 64.9876 199.411C65.0549 199.486 65.0993 199.554 65.1206 199.617C65.1761 199.779 64.9978 199.931 64.5856 200.072C64.1609 200.217 63.6207 200.269 62.9651 200.228C62.2969 200.191 61.6554 200.09 61.0405 199.923C59.7104 199.583 58.6747 199.246 57.9333 198.914L57.4369 198.686C56.4652 198.251 55.5529 197.949 54.7 197.78C53.8429 197.599 52.9959 197.651 52.1591 197.937C51.3722 198.206 50.9771 198.683 50.974 199.367C50.971 199.522 51.0122 199.724 51.0976 199.974C51.1705 200.228 51.2953 200.45 51.4721 200.641C51.6489 200.832 51.8314 200.958 52.0197 201.019C52.4046 201.124 52.7303 201.139 52.9968 201.061C53.455 200.933 53.7207 200.73 53.7937 200.454L53.8366 200.335C53.8594 200.034 53.9832 199.845 54.208 199.769L54.2267 199.762C54.564 199.647 54.8667 199.655 55.1348 199.787C55.3905 199.922 55.565 200.086 55.6583 200.277L55.8046 200.583C55.9327 200.958 55.9729 201.3 55.9251 201.609C55.8731 201.906 55.758 202.14 55.5798 202.313C55.2692 202.628 54.9265 202.85 54.5518 202.978C53.4901 203.341 52.5228 203.225 51.65 202.631C50.773 202.024 50.1573 201.202 49.8029 200.165C49.4486 199.129 49.4183 198.163 49.712 197.267C50.0057 196.371 50.6335 195.759 51.5952 195.431C52.8942 194.987 54.2271 195.152 55.5938 195.926L56.0404 196.192C58.0364 197.379 59.5738 198.081 60.6524 198.298C61.0287 198.379 61.323 198.383 61.5354 198.31C61.6728 198.263 61.7196 198.115 61.676 197.865C61.6156 197.606 61.4658 197.127 61.2267 196.428C60.6248 194.667 59.9468 193.622 59.1929 193.294C59.1341 193.244 59.094 193.188 59.0727 193.126C59.0215 192.976 59.2082 192.828 59.6329 192.683C60.0575 192.538 60.5433 192.47 61.0902 192.478C61.6246 192.491 62.0494 192.631 62.3645 192.9C62.5955 193.086 62.8882 193.698 63.2426 194.735Z" fill="white"/>
<path d="M51.6425 174.351C51.2337 174.492 50.9135 174.709 50.682 175.001C50.4373 175.296 50.338 175.64 50.384 176.033C50.4285 176.413 50.6037 176.718 50.9097 176.948C51.2026 177.18 51.5584 177.324 51.9771 177.382C52.6364 177.451 53.1955 177.458 53.6543 177.405C54.1132 177.351 54.5544 177.26 54.9778 177.13C55.3881 177.003 55.7673 176.779 56.1153 176.459C56.4633 176.139 56.6143 175.783 56.5683 175.389C56.5223 174.996 56.3741 174.694 56.1236 174.484C55.8584 174.263 55.542 174.114 55.1742 174.037C54.4795 173.893 53.9355 173.843 53.5421 173.889C53.1488 173.935 52.8357 173.985 52.6028 174.039C52.3567 174.094 52.0366 174.198 51.6425 174.351ZM57.8675 175.078C57.9565 175.838 57.9159 176.514 57.7459 177.106C57.5743 177.684 57.3299 178.151 57.0127 178.507C56.6809 178.851 56.2497 179.141 55.7189 179.376C54.8612 179.769 53.8882 180.029 52.8 180.156C51.6987 180.285 50.7902 180.358 50.0746 180.375C49.3574 180.379 48.599 180.315 47.7994 180.183C46.9983 180.037 46.3017 179.82 45.7097 179.53C45.1161 179.227 44.6055 178.782 44.1779 178.194C43.7503 177.606 43.4882 176.899 43.3916 176.073C43.3302 175.549 43.3761 174.919 43.5293 174.183C43.6244 173.747 43.846 173.369 44.194 173.049C44.542 172.729 44.9979 172.537 45.5617 172.471C45.9287 172.428 46.246 172.47 46.5136 172.598C47.0339 172.843 47.324 173.221 47.3838 173.733C47.4176 174.021 47.3572 174.301 47.2028 174.571C47.0469 174.829 46.8837 174.967 46.7132 174.987C46.5297 175.009 46.3458 174.97 46.1616 174.872C45.9773 174.774 45.7738 174.738 45.5509 174.764C44.8167 174.85 44.4994 175.319 44.5991 176.171C44.6068 176.237 44.6233 176.321 44.6487 176.425C44.6725 176.515 44.7916 176.681 45.0058 176.921C45.2069 177.164 45.4763 177.365 45.8139 177.524C46.1385 177.686 46.6516 177.812 47.3533 177.903C48.0535 177.98 48.8755 177.964 49.8195 177.853C49.9228 177.828 49.9707 177.782 49.963 177.717C49.9615 177.704 49.9445 177.673 49.9122 177.623C49.7102 177.487 49.4972 177.2 49.2731 176.761C49.0358 176.324 48.8881 175.856 48.8298 175.358C48.7715 174.859 48.8031 174.391 48.9244 173.951C49.0458 173.512 49.2377 173.164 49.5 172.907C49.7609 172.637 50.0328 172.406 50.316 172.213C50.586 172.022 50.8811 171.875 51.2012 171.771C51.7542 171.613 52.1421 171.521 52.365 171.495C53.7679 171.331 54.9973 171.56 56.0534 172.18C57.1079 172.788 57.7126 173.754 57.8675 175.078Z" fill="white"/>
<defs>
<filter id="filter0_d_59_79" x="88" y="88" width="137" height="137" filterUnits="userSpaceOnUse" color-interpolation-filters="sRGB">
<feFlood flood-opacity="0" result="BackgroundImageFix"/>
<feColorMatrix in="SourceAlpha" type="matrix" values="0 0 0 0 0 0 0 0 0 0 0 0 0 0 0 0 0 0 127 0" result="hardAlpha"/>
<feOffset/>
<feGaussianBlur stdDeviation="2"/>
<feComposite in2="hardAlpha" operator="out"/>
<feColorMatrix type="matrix" values="0 0 0 0 0 0 0 0 0 0 0 0 0 0 0 0 0 0 0.69 0"/>
<feBlend mode="normal" in2="BackgroundImageFix" result="effect1_dropShadow_59_79"/>
<feBlend mode="normal" in="SourceGraphic" in2="effect1_dropShadow_59_79" result="shape"/>
</filter>
<filter id="filter1_d_59_79" x="69" y="69" width="176" height="176" filterUnits="userSpaceOnUse" color-interpolation-filters="sRGB">
<feFlood flood-opacity="0" result="BackgroundImageFix"/>
<feColorMatrix in="SourceAlpha" type="matrix" values="0 0 0 0 0 0 0 0 0 0 0 0 0 0 0 0 0 0 127 0" result="hardAlpha"/>
<feOffset/>
<feGaussianBlur stdDeviation="2"/>
<feComposite in2="hardAlpha" operator="out"/>
<feColorMatrix type="matrix" values="0 0 0 0 0 0 0 0 0 0 0 0 0 0 0 0 0 0 0.99 0"/>
<feBlend mode="normal" in2="BackgroundImageFix" result="effect1_dropShadow_59_79"/>
<feBlend mode="normal" in="SourceGraphic" in2="effect1_dropShadow_59_79" result="shape"/>
</filter>
<linearGradient id="paint0_linear_59_79" x1="156.5" y1="0" x2="156.5" y2="313" gradientUnits="userSpaceOnUse">
<stop stop-color="#151515"/>
<stop offset="0.5" stop-color="#484848"/>
<stop offset="1"/>
</linearGradient>
<linearGradient id="paint1_linear_59_79" x1="157" y1="313" x2="159" y2="-2" gradientUnits="userSpaceOnUse">
<stop stop-color="#D4D4D4"/>
<stop offset="1" stop-color="#2C2C2C"/>
</linearGradient>
</defs>
</svg>
